<?xml version="1.0" encoding="UTF-8" standalone="no"?>
<svg
   xmlns:dc="http://purl.org/dc/elements/1.1/"
   xmlns:cc="http://creativecommons.org/ns#"
   xmlns:rdf="http://www.w3.org/1999/02/22-rdf-syntax-ns#"
   xmlns:svg="http://www.w3.org/2000/svg"
   xmlns="http://www.w3.org/2000/svg"
   xmlns:sodipodi="http://sodipodi.sourceforge.net/DTD/sodipodi-0.dtd"
   xmlns:inkscape="http://www.inkscape.org/namespaces/inkscape"
   width="793.70081"
   height="400"
   viewBox="0 0 210 105.83334"
   version="1.1"
   id="svg8"
   inkscape:version="1.0.1 (1.0.1+r73)"
   sodipodi:docname="zero_coding.svg"
   inkscape:export-filename="/home/dan/Documents/DataInMotion/web/datainmotion/static/images/zero_coding.png"
   inkscape:export-xdpi="51"
   inkscape:export-ydpi="51">
  <defs
     id="defs2">
    <clipPath
       clipPathUnits="userSpaceOnUse"
       id="clipPath11727">
      <path
         style="fill:#ffffff;fill-opacity:1;stroke:#000000;stroke-width:0.264583px;stroke-linecap:butt;stroke-linejoin:miter;stroke-opacity:1"
         d="m -29.599776,26.635832 49.576593,-49.205191 12.100912,4.638768 16.242342,-16.64777 14.551644,3.794387 -23.433415,25.9742594 16.37031,2.4706178 10.062255,-11.5051802 16.44464,2.419471 8.886775,-10.182033 15.14761,3.279839 12.42774,-16.684545 28.51321,6.044851 7.81962,-9.627341 23.05128,5.704893 -20.70255,26.84323 18.26809,0.4722627 14.03218,-16.9980857 19.05697,1.837513 -22.61868,33.350446 17.53464,0.17976 -5.74032,9.890269 20.75011,-0.748177 -16.70579,54.364852 -16.29293,1.375929 3.47205,-13.790499 -14.1831,0.534019 -20.79372,38.469393 -20.04898,2.73822 7.52178,-21.055142 -15.44576,-0.524057 5.87474,-13.664145 -16.9155,0.126768 L 99.283483,97.893873 82.87857,98.060367 90.671536,82.234368 73.230346,82.08808 77.932259,73.914394 64.415548,73.970753 45.482618,100.97501 15.373023,100.24026 23.538592,87.325811 8.6676143,85.053456 14.541194,75.026912 0.159228,75.164246 l -20.803063,29.242724 -13.991163,0.12232 22.904125,-38.48335 h -19.716404 l 7.892075,-15.658558 -12.983103,-3.943418 13.482427,-15.62444 z"
         id="path11729" />
    </clipPath>
    <filter
       inkscape:collect="always"
       style="color-interpolation-filters:sRGB"
       id="filter12581"
       x="-0.00070089762"
       width="1.0014018"
       y="-0.0013553581"
       height="1.0027107">
      <feGaussianBlur
         inkscape:collect="always"
         stdDeviation="0.054797268"
         id="feGaussianBlur12583" />
    </filter>
  </defs>
  <sodipodi:namedview
     id="base"
     pagecolor="#ffffff"
     bordercolor="#666666"
     borderopacity="1.0"
     inkscape:pageopacity="0.0"
     inkscape:pageshadow="2"
     inkscape:zoom="0.98994949"
     inkscape:cx="413.14836"
     inkscape:cy="180.13739"
     inkscape:document-units="mm"
     inkscape:current-layer="g11741"
     inkscape:document-rotation="0"
     showgrid="false"
     units="px"
     inkscape:snap-global="false"
     inkscape:window-width="1325"
     inkscape:window-height="713"
     inkscape:window-x="41"
     inkscape:window-y="27"
     inkscape:window-maximized="1" />
  <metadata
     id="metadata5">
    <rdf:RDF>
      <cc:Work
         rdf:about="">
        <dc:format>image/svg+xml</dc:format>
        <dc:type
           rdf:resource="http://purl.org/dc/dcmitype/StillImage" />
        <dc:title></dc:title>
      </cc:Work>
    </rdf:RDF>
  </metadata>
  <g
     inkscape:label="Layer 1"
     inkscape:groupmode="layer"
     id="layer1">
    <g
       id="g3531"
       transform="matrix(-0.89416037,-0.33741106,0.33741106,-0.89416037,144.49007,79.502506)"
       style="opacity:0.711896;filter:url(#filter12581)">
      <path
         style="fill:none;stroke:#a4a4a4;stroke-width:0.337422px;stroke-linecap:butt;stroke-linejoin:miter;stroke-opacity:1"
         d="M 143.34599,-4.4742043 111.6922,23.298118 84.762367,7.2741465 104.22616,-7.0254213 111.04146,23.015396 121.33529,-0.0881072 82.11888,42.459709 77.789836,0.5859339 96.321355,24.572186 l -9.51447,-38.631717 11.83937,-7.129858 5.628315,13.8786587 12.03291,-12.8677297 5.369,19.4546185 z"
         id="path3255-9" />
      <path
         style="fill:none;stroke:#a4a4a4;stroke-width:0.337422px;stroke-linecap:butt;stroke-linejoin:miter;stroke-opacity:1"
         d="M 58.452998,21.411812 84.762367,7.2741465 78.053119,-22.724002 52.890196,6.1918533 57.668305,-7.6822343 46.120527,-14.785657 20.723197,-6.7171073 7.3034127,-24.555342 12.89884,25.458495 28.991369,7.7415226 Z"
         id="path3257-3" />
      <path
         style="fill:none;stroke:#a4a4a4;stroke-width:0.337422px;stroke-linecap:butt;stroke-linejoin:miter;stroke-opacity:1"
         d="M 52.890196,6.1918533 30.654009,33.776205 45.656437,47.492698 58.452998,21.411812 -2.3169495,31.367035 -20.740876,45.018147 -20.972551,26.313671 -1.333313,57.595757 26.911986,70.506541 -24.96951,75.900505 -1.6359651,58.42812 45.207999,47.459704 26.478179,71.141381 31.124725,34.079236 -20.632685,45.126225 12.89884,25.458495 31.020169,34.645503 -2.2168513,31.412598"
         id="path3259-1" />
      <path
         style="fill:none;stroke:#6c6c6c;stroke-width:0.337422px;stroke-linecap:butt;stroke-linejoin:miter;stroke-opacity:1"
         d="M 84.762367,7.2741513 52.890195,6.1918559 58.452998,21.411815 46.120527,-14.785654 28.991369,7.7415264 20.723197,-6.7171073 52.890195,6.1918559 28.991369,7.7415264 30.654009,33.776208 58.452998,21.411815 82.11888,42.459711 96.321355,24.572189 58.452997,21.411826 77.789835,0.585948 l 0.263281,-23.309938 8.753768,8.664471 z"
         id="path3283-9" />
      <ellipse
         style="fill:#aed1e0;fill-opacity:1;stroke:none;stroke-width:0.611436;stroke-linecap:round;stroke-linejoin:round"
         id="path2923-4"
         cx="-112.78701"
         cy="-13.920438"
         rx="1.9040021"
         ry="1.9039716"
         transform="rotate(-175.01431)" />
      <ellipse
         style="fill:#aed1e0;fill-opacity:1;stroke:none;stroke-width:0.611436;stroke-linecap:round;stroke-linejoin:round"
         id="path2923-3-7"
         cx="-85.624168"
         cy="-35.988525"
         rx="1.9040021"
         ry="1.9039716"
         transform="rotate(-175.01431)" />
      <ellipse
         style="fill:#aed1e0;fill-opacity:1;stroke:none;stroke-width:0.611436;stroke-linecap:round;stroke-linejoin:round"
         id="path2923-3-6-8"
         cx="-84.886642"
         cy="-0.34208131"
         rx="1.9040021"
         ry="1.9039716"
         transform="rotate(-175.01431)" />
      <ellipse
         style="fill:#aed1e0;fill-opacity:1;stroke:none;stroke-width:0.611436;stroke-linecap:round;stroke-linejoin:round"
         id="path2923-3-6-7-4"
         cx="-60.416058"
         cy="-17.449541"
         rx="1.9040021"
         ry="1.9039716"
         transform="rotate(-175.01431)" />
      <ellipse
         style="fill:#aed1e0;fill-opacity:1;stroke:none;stroke-width:0.611436;stroke-linecap:round;stroke-linejoin:round"
         id="path2923-3-6-7-5-5"
         cx="-53.549747"
         cy="-2.2177742"
         rx="1.9040021"
         ry="1.9039716"
         transform="rotate(-175.01431)" />
      <ellipse
         style="fill:#aed1e0;fill-opacity:1;stroke:none;stroke-width:0.611436;stroke-linecap:round;stroke-linejoin:round"
         id="path2923-3-6-7-5-3-0"
         cx="-75.290466"
         cy="27.74917"
         rx="1.9040021"
         ry="1.9039716"
         transform="rotate(-175.01431)" />
      <ellipse
         style="fill:#aed1e0;fill-opacity:1;stroke:none;stroke-width:0.611436;stroke-linecap:round;stroke-linejoin:round"
         id="path2923-3-6-7-5-3-5-3"
         cx="-102.91793"
         cy="15.004797"
         rx="1.9040021"
         ry="1.9039716"
         transform="rotate(-175.01431)" />
      <ellipse
         style="fill:#aed1e0;fill-opacity:1;stroke:none;stroke-width:0.611436;stroke-linecap:round;stroke-linejoin:round"
         id="path2923-3-6-7-5-3-5-6-61"
         cx="-141.94649"
         cy="15.834085"
         rx="1.9040021"
         ry="1.9039716"
         transform="rotate(-175.01431)" />
      <ellipse
         style="fill:#aed1e0;fill-opacity:1;stroke:none;stroke-width:0.611436;stroke-linecap:round;stroke-linejoin:round"
         id="path2923-3-6-7-5-3-5-6-2-0"
         cx="-96.600319"
         cy="29.22677"
         rx="1.9040021"
         ry="1.9039716"
         transform="rotate(-175.01431)" />
      <ellipse
         style="fill:#aed1e0;fill-opacity:1;stroke:none;stroke-width:0.611436;stroke-linecap:round;stroke-linejoin:round"
         id="path2923-3-6-7-5-3-5-6-2-9-6"
         cx="-29.755573"
         cy="-6.8262596"
         rx="1.9040021"
         ry="1.9039716"
         transform="rotate(-175.01431)" />
      <ellipse
         style="fill:#aed1e0;fill-opacity:1;stroke:none;stroke-width:0.611436;stroke-linecap:round;stroke-linejoin:round"
         id="path2923-3-6-7-5-3-5-6-2-2-3"
         cx="-45.305832"
         cy="17.856024"
         rx="1.9040021"
         ry="1.9039716"
         transform="rotate(-175.01431)" />
      <ellipse
         style="fill:#aed1e0;fill-opacity:1;stroke:none;stroke-width:0.611436;stroke-linecap:round;stroke-linejoin:round"
         id="path2923-3-6-7-5-3-5-6-2-2-7-2"
         cx="-6.2098041"
         cy="23.34762"
         rx="1.9040021"
         ry="1.9039716"
         transform="rotate(-175.01431)" />
      <ellipse
         style="fill:#b2b2b2;fill-opacity:1;stroke:none;stroke-width:0.611436;stroke-linecap:round;stroke-linejoin:round"
         id="path2923-3-6-7-5-3-5-6-2-2-7-0-0"
         cx="18.154781"
         cy="-28.436954"
         rx="1.9040021"
         ry="1.9039716"
         transform="rotate(-175.01431)" />
      <ellipse
         style="fill:#aed1e0;fill-opacity:1;stroke:none;stroke-width:0.611436;stroke-linecap:round;stroke-linejoin:round"
         id="path2923-3-6-7-5-3-5-6-2-2-7-0-9-6"
         cx="-15.770013"
         cy="-24.660082"
         rx="1.9040021"
         ry="1.9039716"
         transform="rotate(-175.01431)" />
      <ellipse
         style="fill:#b2b2b2;fill-opacity:1;stroke:none;stroke-width:0.611436;stroke-linecap:round;stroke-linejoin:round"
         id="path2923-3-6-7-5-3-5-6-2-2-7-0-9-3-1"
         cx="17.106571"
         cy="-77.602097"
         rx="1.9040021"
         ry="1.9039716"
         transform="rotate(-175.01431)" />
      <ellipse
         style="fill:#aed1e0;fill-opacity:1;stroke:none;stroke-width:0.250792;stroke-linecap:round;stroke-linejoin:round"
         id="path2923-3-6-7-5-3-5-6-6-5"
         cx="-120.4661"
         cy="9.8812618"
         rx="0.78095216"
         ry="0.78093934"
         transform="rotate(-175.01431)" />
      <ellipse
         style="fill:#aed1e0;fill-opacity:1;stroke:none;stroke-width:0.250792;stroke-linecap:round;stroke-linejoin:round"
         id="path2923-3-6-7-5-3-5-6-6-0-5"
         cx="-98.178726"
         cy="-16.809685"
         rx="0.78095216"
         ry="0.78093934"
         transform="rotate(-175.01431)" />
      <ellipse
         style="fill:#aed1e0;fill-opacity:1;stroke:none;stroke-width:0.250792;stroke-linecap:round;stroke-linejoin:round"
         id="path2923-3-6-7-5-3-5-6-6-0-6-4"
         cx="-77.575325"
         cy="5.0385647"
         rx="0.78095216"
         ry="0.78093934"
         transform="rotate(-175.01431)" />
      <ellipse
         style="fill:#aed1e0;fill-opacity:1;stroke:none;stroke-width:0.250792;stroke-linecap:round;stroke-linejoin:round"
         id="path2923-3-6-7-5-3-5-6-6-0-2-7"
         cx="-113.47893"
         cy="28.638899"
         rx="0.78095216"
         ry="0.78093934"
         transform="rotate(-175.01431)" />
      <ellipse
         style="fill:#aed1e0;fill-opacity:1;stroke:none;stroke-width:0.250792;stroke-linecap:round;stroke-linejoin:round"
         id="path2923-3-6-7-5-3-5-6-6-0-61-6"
         cx="-85.245255"
         cy="20.323999"
         rx="0.78095216"
         ry="0.78093934"
         transform="rotate(-175.01431)" />
      <ellipse
         style="fill:#aed1e0;fill-opacity:1;stroke:none;stroke-width:0.250792;stroke-linecap:round;stroke-linejoin:round"
         id="path2923-3-6-7-5-3-5-6-6-0-8-5"
         cx="-89.0382"
         cy="41.711544"
         rx="0.78095216"
         ry="0.78093934"
         transform="rotate(-175.01431)" />
      <ellipse
         style="fill:#aed1e0;fill-opacity:1;stroke:none;stroke-width:0.250792;stroke-linecap:round;stroke-linejoin:round"
         id="path2923-3-6-7-5-3-5-6-6-0-7-6"
         cx="-51.038391"
         cy="32.657787"
         rx="0.78095216"
         ry="0.78093934"
         transform="rotate(-175.01431)" />
      <ellipse
         style="fill:#aed1e0;fill-opacity:1;stroke:none;stroke-width:0.250792;stroke-linecap:round;stroke-linejoin:round"
         id="path2923-3-6-7-5-3-5-6-6-0-9-9"
         cx="-57.151356"
         cy="11.371662"
         rx="0.78095216"
         ry="0.78093934"
         transform="rotate(-175.01431)" />
      <ellipse
         style="fill:#aed1e0;fill-opacity:1;stroke:none;stroke-width:0.250792;stroke-linecap:round;stroke-linejoin:round"
         id="path2923-3-6-7-5-3-5-6-6-0-20-3"
         cx="-34.064102"
         cy="-31.69183"
         rx="0.78095216"
         ry="0.78093934"
         transform="rotate(-175.01431)" />
      <ellipse
         style="fill:#aed1e0;fill-opacity:1;stroke:none;stroke-width:0.250792;stroke-linecap:round;stroke-linejoin:round"
         id="path2923-3-6-7-5-3-5-6-6-0-23-7"
         cx="-32.972504"
         cy="-68.31485"
         rx="0.78095216"
         ry="0.78093934"
         transform="rotate(-175.01431)" />
      <ellipse
         style="fill:#aed1e0;fill-opacity:1;stroke:none;stroke-width:0.250792;stroke-linecap:round;stroke-linejoin:round"
         id="path2923-3-6-7-5-3-5-6-6-0-75-4"
         cx="-4.4818521"
         cy="-57.835537"
         rx="0.78095216"
         ry="0.78093934"
         transform="rotate(-175.01431)" />
      <ellipse
         style="fill:#b2b2b2;fill-opacity:1;stroke:none;stroke-width:0.250792;stroke-linecap:round;stroke-linejoin:round"
         id="path2923-3-6-7-5-3-5-6-6-0-92-5"
         cx="15.876432"
         cy="-46.264614"
         rx="0.78095216"
         ry="0.78093934"
         transform="rotate(-175.01431)" />
      <ellipse
         style="fill:#aed1e0;fill-opacity:1;stroke:none;stroke-width:0.250792;stroke-linecap:round;stroke-linejoin:round"
         id="path2923-3-6-7-5-3-5-6-6-0-28-2"
         cx="-1.207065"
         cy="-31.637234"
         rx="0.78095216"
         ry="0.78093934"
         transform="rotate(-175.01431)" />
      <ellipse
         style="fill:#aed1e0;fill-opacity:1;stroke:none;stroke-width:0.250792;stroke-linecap:round;stroke-linejoin:round"
         id="path2923-3-6-7-5-3-5-6-6-0-97-5"
         cx="-50.165138"
         cy="-43.535637"
         rx="0.78095216"
         ry="0.78093934"
         transform="rotate(-175.01431)" />
      <ellipse
         style="fill:#aed1e0;fill-opacity:1;stroke:none;stroke-width:0.250792;stroke-linecap:round;stroke-linejoin:round"
         id="path2923-3-6-7-5-3-5-6-6-0-3-4"
         cx="-20.582895"
         cy="8.0968761"
         rx="0.78095216"
         ry="0.78093934"
         transform="rotate(-175.01431)" />
      <ellipse
         style="fill:#aed1e0;fill-opacity:1;stroke:none;stroke-width:0.250792;stroke-linecap:round;stroke-linejoin:round"
         id="path2923-3-6-7-5-3-5-6-6-0-612-7"
         cx="-27.023296"
         cy="34.4589"
         rx="0.78095216"
         ry="0.78093934"
         transform="rotate(-175.01431)" />
    </g>
    <g
       id="g11741"
       transform="translate(6.8726305,-7.3312586)"
       inkscape:export-filename="/home/dan/Documents/DataInMotion/web/datainmotion/static/images/zero_coding.png"
       inkscape:export-xdpi="51"
       inkscape:export-ydpi="51">
      <rect
         style="opacity:1;fill:#330043;fill-opacity:1;stroke:#ff5d00;stroke-width:2.98335;stroke-linejoin:round;stroke-miterlimit:4;stroke-dasharray:none;stroke-opacity:1;paint-order:fill markers stroke"
         id="rect833"
         width="98.487892"
         height="20.755081"
         x="43.988731"
         y="38.054596"
         rx="11.136268"
         ry="31.082598" />
      <ellipse
         style="opacity:1;fill:#ff5d00;fill-opacity:1;stroke:#ff5d00;stroke-width:3.29608;stroke-linejoin:round;stroke-opacity:1;paint-order:fill markers stroke"
         id="path835"
         cx="131.76144"
         cy="48.310379"
         rx="7.8623953"
         ry="7.8623228" />
      <text
         xml:space="preserve"
         style="font-style:normal;font-weight:normal;font-size:5.5332px;line-height:1.25;font-family:sans-serif;letter-spacing:0px;word-spacing:0px;fill:#000000;fill-opacity:1;stroke:none;stroke-width:0.172912"
         x="54.613823"
         y="50.489391"
         id="text839"><tspan
           sodipodi:role="line"
           id="tspan837"
           x="54.613823"
           y="50.489391"
           style="font-style:normal;font-variant:normal;font-weight:bold;font-stretch:normal;font-size:7.3776px;font-family:'Liberation Mono';-inkscape-font-specification:'Liberation Mono Bold';fill:#ffffff;fill-opacity:1;stroke-width:0.172912">Zero Coding !!</tspan></text>
      <path
         style="fill:#000000;stroke-width:0.411269"
         d="m 129.81062,51.724451 c -0.58803,-0.58803 0.8199,-3.127104 2.9576,-5.333764 2.18272,-2.253124 3.35694,-2.757849 4.27656,-1.838228 0.58501,0.585016 0.57131,0.796915 -0.14868,2.299528 -0.43619,0.910323 -0.99215,1.657256 -1.23547,1.659851 -0.24332,0.0026 -0.89106,0.484285 -1.43944,1.070423 -1.30651,1.396484 -3.89773,2.655027 -4.41057,2.14219 z m 3.61994,-2.591793 c 1.0832,-1.117582 1.28573,-1.550445 0.90401,-1.932161 -0.38171,-0.381716 -0.81458,-0.179189 -1.93216,0.904015 -1.47615,1.430746 -1.85618,2.468387 -0.90401,2.468387 0.29492,0 1.16439,-0.648108 1.93216,-1.440241 z m 2.89257,-2.895509 c 0.40061,-0.482708 0.41195,-0.748836 0.0474,-1.113363 -0.58845,-0.588451 -1.96682,0.58325 -1.52572,1.296962 0.38484,0.622683 0.8579,0.563931 1.4783,-0.183599 z"
         id="path12603" />
      <ellipse
         style="opacity:1;fill:#a8a8a8;fill-opacity:1;stroke:#a8a8a8;stroke-width:3.58358;stroke-linejoin:round;stroke-opacity:1;paint-order:fill markers stroke"
         id="path835-5"
         cx="154.24809"
         cy="48.222977"
         rx="8.5482063"
         ry="8.5481281" />
      <path
         style="fill:#000000;stroke-width:0.248752"
         d="m 153.34415,52.683688 c -0.6387,-0.658972 -0.77431,-0.941127 -0.55684,-1.158593 0.21746,-0.217466 0.37721,-0.212998 0.65597,0.01835 0.31445,0.260974 0.37984,0.148163 0.44586,-0.769237 0.0544,-0.755391 0.18831,-1.075061 0.45049,-1.075061 0.26218,0 0.39613,0.31967 0.45049,1.075061 0.066,0.9174 0.1314,1.030211 0.44586,0.769237 0.27875,-0.231346 0.4385,-0.235814 0.65597,-0.01835 0.21747,0.217466 0.0819,0.499621 -0.55684,1.158593 -0.46438,0.479115 -0.91234,0.871118 -0.99548,0.871118 -0.0831,0 -0.5311,-0.392003 -0.99548,-0.871118 z m -3.48661,-3.486743 -0.84841,-0.875328 0.91984,-0.919834 c 0.70424,-0.704237 0.9883,-0.851369 1.21194,-0.627729 0.22364,0.22364 0.22042,0.378477 -0.0137,0.660602 -0.26097,0.314454 -0.14816,0.379841 0.76924,0.445859 0.75539,0.05436 1.07506,0.188314 1.07506,0.450492 0,0.262178 -0.31967,0.396133 -1.07506,0.450492 -0.88717,0.06384 -1.02472,0.13802 -0.78703,0.42442 0.28189,0.339653 0.14924,0.866354 -0.21819,0.866354 -0.1019,0 -0.56705,-0.393897 -1.03367,-0.875328 z m 7.58476,0.615679 c -0.0883,-0.142807 -0.0309,-0.415824 0.12756,-0.606705 0.23769,-0.2864 0.10013,-0.360577 -0.78703,-0.42442 -0.75539,-0.05436 -1.07506,-0.188314 -1.07506,-0.450492 0,-0.262178 0.31967,-0.396133 1.07506,-0.450492 0.9174,-0.06602 1.03021,-0.131405 0.76923,-0.445859 -0.23414,-0.282125 -0.23735,-0.436962 -0.0137,-0.660602 0.22364,-0.22364 0.5077,-0.07651 1.21194,0.627729 l 0.91983,0.919834 -0.8484,0.875328 c -0.90214,0.930776 -1.1236,1.029617 -1.37942,0.615679 z m -3.42916,-2.886031 c -0.0941,-0.09406 -0.17102,-0.613821 -0.17102,-1.155026 0,-0.858488 -0.0489,-0.943391 -0.38367,-0.665591 -0.29374,0.243785 -0.45213,0.249953 -0.67577,0.02631 -0.22364,-0.22364 -0.0754,-0.508805 0.63242,-1.216636 l 0.92453,-0.924529 0.92453,0.924529 c 0.70783,0.707831 0.85606,0.992996 0.63242,1.216636 -0.22364,0.22364 -0.37848,0.220425 -0.6606,-0.01372 -0.31426,-0.260816 -0.37988,-0.150452 -0.44586,0.749904 -0.0731,0.997828 -0.39666,1.438437 -0.77698,1.058118 z"
         id="path12605" />
      <circle
         style="opacity:1;fill:#ffffff;fill-opacity:1;stroke:#330043;stroke-width:1.45018;stroke-linejoin:round;stroke-miterlimit:4;stroke-dasharray:none;stroke-opacity:1;paint-order:fill markers stroke"
         id="path1724"
         cx="55.102921"
         cy="37.301991"
         r="3.095062" />
      <circle
         style="opacity:1;fill:#00ff1d;fill-opacity:1;stroke:#330043;stroke-width:1.45018;stroke-linejoin:round;stroke-miterlimit:4;stroke-dasharray:none;stroke-opacity:1;paint-order:fill markers stroke"
         id="path1724-6"
         cx="43.55402"
         cy="48.4091"
         r="3.095062" />
      <circle
         style="opacity:1;fill:#fdff00;fill-opacity:1;stroke:#330043;stroke-width:1.45018;stroke-linejoin:round;stroke-miterlimit:4;stroke-dasharray:none;stroke-opacity:1;paint-order:fill markers stroke"
         id="path1724-4"
         cx="52.659565"
         cy="59.08194"
         r="3.095062" />
    </g>
  </g>
</svg>
