<?xml version="1.0" encoding="UTF-8" standalone="no"?>
<svg
   xmlns:dc="http://purl.org/dc/elements/1.1/"
   xmlns:cc="http://creativecommons.org/ns#"
   xmlns:rdf="http://www.w3.org/1999/02/22-rdf-syntax-ns#"
   xmlns:svg="http://www.w3.org/2000/svg"
   xmlns="http://www.w3.org/2000/svg"
   xmlns:sodipodi="http://sodipodi.sourceforge.net/DTD/sodipodi-0.dtd"
   xmlns:inkscape="http://www.inkscape.org/namespaces/inkscape"
   version="1.1"
   id="svg17619"
   width="195.76471"
   height="192"
   viewBox="0 0 195.76471 192"
   sodipodi:docname="whatsapp_orange_logo.svg"
   inkscape:version="1.0.1 (1.0.1+r73)">
  <metadata
     id="metadata17625">
    <rdf:RDF>
      <cc:Work
         rdf:about="">
        <dc:format>image/svg+xml</dc:format>
        <dc:type
           rdf:resource="http://purl.org/dc/dcmitype/StillImage" />
        <dc:title></dc:title>
      </cc:Work>
    </rdf:RDF>
  </metadata>
  <defs
     id="defs17623" />
  <sodipodi:namedview
     pagecolor="#ffffff"
     bordercolor="#666666"
     borderopacity="1"
     objecttolerance="10"
     gridtolerance="10"
     guidetolerance="10"
     inkscape:pageopacity="0"
     inkscape:pageshadow="2"
     inkscape:window-width="1325"
     inkscape:window-height="713"
     id="namedview17621"
     showgrid="false"
     inkscape:zoom="2.0844919"
     inkscape:cx="97.882355"
     inkscape:cy="96"
     inkscape:window-x="41"
     inkscape:window-y="27"
     inkscape:window-maximized="1"
     inkscape:current-layer="g17627" />
  <g
     inkscape:groupmode="layer"
     inkscape:label="Image"
     id="g17627">
    <path
       style="fill:#ffa408;stroke:none;stroke-width:1.88235"
       d="m 8.2602414,191.84844 c 16.6420706,-0.71529 34.2179746,-6.28197 50.8235246,-5.08499 23.73817,1.71106 41.326124,9.47464 65.882364,3.39276 15.36903,-3.8065 29.89873,-12.15774 41.40442,-22.94833 10.61083,-9.95106 19.00612,-21.83304 23.82852,-35.59473 C 229.57789,19.240701 60.052616,-52.705915 9.9566744,56.319026 c -15.695173,34.15774 -2.864019,56.815254 1.9578916,90.352944 2.106484,14.6513 -2.5013646,30.56678 -3.6543246,45.17647 M 57.201416,165.4955 c -3.70353,10.53214 -22.23793,9.21035 -31.999998,9.41177 0.478305,-11.13845 5.179106,-24.85873 2.925176,-35.76471 C 24.548994,121.83112 16.119177,108.94209 17.992984,90.201376 25.735441,12.767496 136.12886,-7.7868192 171.31474,61.966085 207.25695,133.22011 123.53855,204.03103 57.201416,165.4955 m 7.53675,-114.762545 c -17.73722,8.731483 -13.4688,29.079906 -6.39228,43.233131 11.70203,23.403864 51.524904,64.175624 81.474264,45.008004 14.88998,-9.5296 3.78202,-21.94108 -7.32461,-27.44809 -12.61591,-6.25544 -12.91859,5.70428 -23.41459,5.83303 -11.126594,0.13647 -28.771574,-18.250174 -28.993504,-29.040004 -0.14005,-6.804706 5.09684,-11.624659 3.81553,-18.82353 -1.66062,-9.329505 -6.8817,-24.809223 -19.16481,-18.762541 z"
       id="path18192" />
  </g>
</svg>
